<svg xmlns="http://www.w3.org/2000/svg" viewBox="0 0 240 240">
  <rect width="240" height="240" fill="#ffffff"/>
  <rect x="16" y="16" width="64" height="64" fill="#000000" rx="8"/>
  <rect x="28" y="28" width="40" height="40" fill="#ffffff" rx="4"/>
  <rect x="188" y="16" width="36" height="36" fill="#000000" rx="6"/>
  <rect x="188" y="64" width="36" height="36" fill="#000000" rx="6"/>
  <rect x="188" y="112" width="36" height="36" fill="#000000" rx="6"/>
  <rect x="16" y="160" width="36" height="36" fill="#000000" rx="6"/>
  <rect x="64" y="160" width="36" height="36" fill="#000000" rx="6"/>
  <rect x="112" y="160" width="36" height="36" fill="#000000" rx="6"/>
  <rect x="160" y="160" width="36" height="36" fill="#000000" rx="6"/>
  <rect x="64" y="64" width="80" height="20" fill="#000000"/>
  <rect x="112" y="112" width="20" height="80" fill="#000000"/>
  <rect x="144" y="32" width="28" height="28" fill="#000000" rx="4"/>
  <rect x="96" y="96" width="24" height="24" fill="#000000" rx="4"/>
  <rect x="40" y="112" width="24" height="24" fill="#000000" rx="4"/>
  <rect x="160" y="88" width="24" height="24" fill="#000000" rx="4"/>
  <text x="120" y="218" text-anchor="middle" font-family="Arial, sans-serif" font-size="28" fill="#111111">AM</text>
</svg>
